<?xml version="1.0" encoding="UTF-8"?>
<svg id="Layer_1" data-name="Layer 1" xmlns="http://www.w3.org/2000/svg" viewBox="0 0 421.44 137.66">
    <path d="M39,40.92v93.47H0V3.27h50.82c22.29,0,39.74,5.06,52.36,15.18,14.99,12.1,22.48,28.53,22.48,49.28s-6.4,36.06-19.21,48.61c-12.81,12.55-29.3,18.83-49.47,18.83-2.37,0-6.24-.13-11.62-.38v-38.52h6.24c22.73,0,34.1-9.51,34.1-28.53,0-17.87-11.18-26.8-33.53-26.8h-13.16Z"
          fill="#fff"/>
    <path d="M232.67,70.32l40.83,1.06c-2.69,21.13-10.01,37.47-21.95,48.99-11.94,11.53-27.52,17.29-46.74,17.29s-35.88-6.55-49.04-19.65c-13.16-13.1-19.74-29.35-19.74-48.75s6.71-35.96,20.13-49.28C169.57,6.66,186.11,0,205.77,0s35.48,6.53,48.42,19.6c8.96,9.03,15.31,21.61,19.02,37.75l-41.79,2.79c-4.68-14.35-13.55-21.52-26.61-21.52-8.33,0-15.19,2.88-20.61,8.65-5.41,5.76-8.12,13.1-8.12,22s2.66,15.68,7.97,21.28c5.32,5.6,12.04,8.41,20.17,8.41s14.84-2.46,19.74-7.4c4.9-4.93,7.8-12.01,8.69-21.23Z"
          fill="#fff"/>
    <path d="M380.61,70.32l40.83,1.06c-2.69,21.13-10.01,37.47-21.95,48.99-11.94,11.53-27.52,17.29-46.74,17.29s-35.88-6.55-49.04-19.65c-13.16-13.1-19.74-29.35-19.74-48.75s6.71-35.96,20.13-49.28c13.42-13.32,29.96-19.98,49.62-19.98s35.48,6.53,48.42,19.6c8.97,9.03,15.31,21.61,19.02,37.75l-41.79,2.79c-4.68-14.35-13.55-21.52-26.61-21.52-8.33,0-15.2,2.88-20.61,8.65-5.41,5.76-8.12,13.1-8.12,22s2.66,15.68,7.97,21.28c5.32,5.6,12.04,8.41,20.17,8.41s14.84-2.46,19.74-7.4c4.9-4.93,7.8-12.01,8.69-21.23Z"
          fill="#fff"/>
</svg>